<?xml version="1.0" encoding="utf-8"?>
<!-- Generator: Adobe Illustrator 28.0.0, SVG Export Plug-In . SVG Version: 6.00 Build 0)  -->
<svg version="1.1" id="Layer_1" xmlns="http://www.w3.org/2000/svg" xmlns:xlink="http://www.w3.org/1999/xlink" x="0px" y="0px"
	 viewBox="0 0 588.9 175.3" style="enable-background:new 0 0 588.9 175.3;" xml:space="preserve">
<style type="text/css">
	.st0{fill:#02006D;}
</style>
<g>
	<g>
		<path class="st0" d="M5.3,140.4V38.4h18.3v40.9c4.6-5.8,11.7-9.9,22.9-9.9c19.7,0,33.7,15,33.7,36.2s-14,36.3-33.7,36.3
			c-10.2,0-18.1-3.5-22.6-8.9l-0.4,7.4H5.3L5.3,140.4z M42.7,125.2c11,0,18.9-8.7,18.9-19.7s-7.8-19.4-18.9-19.4
			s-18.9,8.3-18.9,19.4S31.7,125.2,42.7,125.2z"/>
		<path class="st0" d="M85.6,70.8h20.6l18.2,50.7l18-50.7H163l-32.8,79.1c-5.6,13.3-14.1,21-29.1,21c-5.6,0-10.2-1.5-13.3-3
			l2.3-14.9c2.4,1,5.7,1.8,8.8,1.8c7.8,0,13.3-5.4,15.4-14.2L85.6,70.8L85.6,70.8z"/>
		<path class="st0" d="M167.8,105.6c0-20.5,15.9-36.2,37.2-36.2s37.2,15.7,37.2,36.2s-15.8,36.2-37.2,36.2S167.8,126.2,167.8,105.6z
			 M205,125.1c10.9,0,18.7-8.3,18.7-19.4s-7.8-19.4-18.7-19.4s-18.7,8.3-18.7,19.4S194.1,125.1,205,125.1z"/>
		<path class="st0" d="M258.2,70.8h18l0.4,9.5c3.5-7.2,10.3-10.9,18.1-10.9c4.1,0,7.6,1.1,9.1,1.6l-1.5,16.6
			c-1.9-0.6-4.9-1.6-8.6-1.6c-8.2,0-16.8,4.4-16.8,18.8v35.7h-18.6L258.2,70.8L258.2,70.8z"/>
		<path class="st0" d="M343,69.4c11.2,0,18.3,4.1,23,9.9l0.4-8.4h17.8l-0.1,62.3c-0.1,23-15.6,37.8-40.2,37.8
			c-12.8,0-25.5-5.6-33.6-15.1l12-11.7c6.6,6.4,13.7,10.1,21.6,10.1c13.2,0,21.8-7.6,21.8-19.2v-2.4c-4.2,5.6-12.4,9.3-22.6,9.3
			c-19.7,0-33.7-15.3-33.7-36.3S323.3,69.4,343,69.4L343,69.4z M328,105.5c0,11,7.8,19.7,18.9,19.7s18.9-8.7,18.9-19.7
			s-8-19.4-18.9-19.4S328,94.2,328,105.5z"/>
	</g>
	<g>
		<path class="st0" d="M463.5,120.5c0-13.1,12-22.3,30.5-22.3c4.8,0,10.2,0.8,14.7,2.4V99c0-7.7-6.2-13.3-15.1-13.3
			c-8,0-13.8,3.9-18.4,8.8l-10.7-10.7c4.7-6.1,15-14.5,29.7-14.5c20.4,0,33.1,10.8,33.1,28.2v42.8h-17.7v-7.8
			c-3.8,5.7-10.9,9.2-19.7,9.2C474,141.9,463.5,133.4,463.5,120.5L463.5,120.5z M481.1,119.5c0,5.2,4.5,8.5,11.6,8.5
			c8.9,0,16-6,16-14.7c-3.4-1.5-7.8-2.7-13.3-2.7C486.8,110.6,481.1,114.2,481.1,119.5L481.1,119.5z"/>
		<path class="st0" d="M547.4,140.4V70.8H566v69.6H547.4z"/>
	</g>
	<path class="st0" d="M450.7,137.2c-0.4-0.6-1.5-0.7-2.4-0.9c-8.8-1.3-17.9-3-20.9-12.6c-1.3-3.8-1.9-7.7-2.5-11.6
		c-0.2-0.6-0.3-1.5-1.1-1.5c-0.8,0-0.9,0.8-1.1,1.5c-0.6,3.9-1.2,7.8-2.5,11.6c-2.9,9.7-12.1,11.3-20.9,12.6c-0.9,0.2-2,0.3-2.4,0.9
		c-0.7,1.6,2,1.6,3,1.9c2.7,0.5,5.2,0.9,7.9,1.5c7.2,1.6,11.8,6.8,13.2,13.6c0.7,3,1.2,5.9,1.7,8.8c0.2,0.8,0.5,1.7,1.1,1.7h0h0
		c0.6-0.1,0.9-0.9,1.1-1.7c0.5-3,1-5.8,1.7-8.8c1.4-6.8,6-12,13.2-13.6c2.7-0.6,5.2-1,7.9-1.5C448.7,138.8,451.4,138.8,450.7,137.2
		L450.7,137.2z"/>
	<path class="st0" d="M583.5,30.9c-0.4-0.6-1.5-0.7-2.4-0.9c-8.8-1.3-17.9-3-20.9-12.6c-1.3-3.8-1.9-7.7-2.5-11.6
		c-0.2-0.6-0.3-1.5-1.1-1.5c-0.8,0-0.9,0.8-1.1,1.5c-0.6,3.9-1.2,7.8-2.5,11.6c-2.9,9.7-12.1,11.3-20.9,12.6c-0.9,0.2-2,0.3-2.4,0.9
		c-0.7,1.6,2,1.6,3,1.9c2.7,0.5,5.2,0.9,7.9,1.5c7.2,1.6,11.8,6.8,13.2,13.6c0.7,3,1.2,5.9,1.7,8.8c0.2,0.8,0.5,1.7,1.1,1.7h0h0
		c0.6-0.1,0.9-0.9,1.1-1.7c0.5-3,1-5.8,1.7-8.8c1.4-6.8,6-11.9,13.2-13.6c2.7-0.6,5.2-1,7.9-1.5C581.6,32.5,584.2,32.5,583.5,30.9
		L583.5,30.9z"/>
</g>
</svg>
